/* XPM */
static char *barrel[] = {
/* columns rows colors chars-per-pixel */
"32 32 113 2 ",
"   c #000000",
".  c #000000",
"X  c #000000",
"o  c #000000",
"O  c #000000",
"+  c #171819",
"@  c #1A1B1B",
"#  c #27180E",
"$  c #221E15",
"%  c #2E281B",
"&  c #3F2714",
"*  c #3B2815",
"=  c #32271D",
"-  c #3B2D1B",
";  c #3E321E",
":  c #232322",
">  c #26282B",
",  c #2A2B2E",
"<  c #342D22",
"1  c #3B2E25",
"2  c #393122",
"3  c #32302F",
"4  c #3F3629",
"5  c #2D3032",
"6  c #343434",
"7  c #393732",
"8  c #393936",
"9  c #35383A",
"0  c #3B3B3B",
"q  c #433115",
"w  c #4C3617",
"e  c #463318",
"r  c #4C361B",
"t  c #4C381C",
"y  c #50391E",
"u  c #5D3D1C",
"i  c #643F1D",
"p  c #4E3C20",
"a  c #413328",
"s  c #403829",
"d  c #5C3E21",
"f  c #433E37",
"g  c #613E21",
"h  c #67411E",
"j  c #534334",
"k  c #574839",
"l  c #5C4B3D",
"z  c #634224",
"x  c #6E4423",
"c  c #6E4827",
"v  c #6E4929",
"b  c #734623",
"n  c #734825",
"m  c #714728",
"M  c #734B2B",
"N  c #7A4E2D",
"B  c #624D3D",
"V  c #794F30",
"C  c #3B3F41",
"Z  c #3E4143",
"A  c #434443",
"S  c #474748",
"D  c #45494B",
"F  c #4C4B4A",
"G  c #50504F",
"H  c #5B534B",
"J  c #4C4F51",
"K  c #4E5052",
"L  c #545556",
"P  c #525658",
"I  c #54585B",
"U  c #5C5C5B",
"Y  c #685342",
"T  c #6B5847",
"R  c #6B5848",
"E  c #745B4A",
"W  c #785E4D",
"Q  c #6B5F55",
"!  c #7E6453",
"~  c #5C5F61",
"^  c #5D6062",
"/  c #626364",
"(  c #646769",
")  c #6B6B6A",
"_  c #7A6B60",
"`  c #74716E",
"'  c #7E7168",
"]  c #6B6E70",
"[  c #737373",
"{  c #797471",
"}  c #797979",
"|  c #834F28",
" . c #85512C",
".. c #88532D",
"X. c #91552F",
"o. c #855532",
"O. c #8B5632",
"+. c #875837",
"@. c #8D5934",
"#. c #8D5D3A",
"$. c #915630",
"%. c #925832",
"&. c #9B5E34",
"*. c #935E3A",
"=. c #97603A",
"-. c #9D633C",
";. c #A36237",
":. c #A2643A",
">. c #966441",
",. c #836654",
"<. c #856854",
"1. c #896C58",
"2. c #8A705E",
/* pixels */
"                                                                ",
"                                                                ",
"                                                                ",
"                                                                ",
"                                                                ",
"                                                                ",
"                                                                ",
"                                                                ",
"                                                                ",
"                                                                ",
"                                                                ",
"                                                                ",
"                                                                ",
"                        .   .         .                         ",
"                                                                ",
"                      @ 6 6 6 , 6 8 9 0 0 X                     ",
"                    J L Z A S S S F L U / ~ +                   ",
"                  $ ! [ ) U U L L F S A 8 8 %                   ",
"                  g @.#.O.o.V V N z d t r e w o                 ",
"                . V *.&.:.;. .%.%.n i b u d t $                 ",
"                : ) ` 2.1.,.W W E B l B j 0 8 :                 ",
"                = Q / ] ^ ~ I P D S S C C 6 5 ;                 ",
"                q o.*.o.@.o.v N M z y d y r r q .               ",
"                & @.-.:.:.-.@.%.o.n g n h r r q                 ",
"                * o.-.-.-.*.o.O. .c z n d r r q                 ",
"                1 #.-.&.;.&...$. .x i b h r t 4 .               ",
"                6 } { 1.<.,.W E E B l l j f 9 >                 ",
"                O H / ( ^ ^ P P D D D C Z 7 < -                 ",
"                . c N o.o.M z v z z t z r q r *                 ",
"              .   a =.o.X.O.x  . .h i b w r t o                 ",
"                  @ [ ' ! ! R R Y k j j 4 2 $                   ",
"                    @ J ^ I K K Z Z 9 , , O                     "
};
