/* XPM */
static char *pillar[] = {
/* columns rows colors chars-per-pixel */
"32 32 189 2",
"   c #000000",
".  c #000000",
"X  c #000000",
"o  c #000000",
"O  c #000000",
"+  c #000000",
"@  c #000000",
"#  c #000000",
"$  c #000000",
"%  c #000000",
"&  c #0E0E0E",
"*  c #0F0F0F",
"=  c #101010",
"-  c #111111",
";  c #131313",
":  c #141414",
">  c #151515",
",  c #161616",
"<  c #171717",
"1  c #191919",
"2  c #1E1E1E",
"3  c #1F1F1F",
"4  c #202020",
"5  c #212121",
"6  c #222222",
"7  c #232323",
"8  c #242424",
"9  c #252525",
"0  c #262626",
"q  c #272727",
"w  c #282828",
"e  c #292929",
"r  c #2A2A2A",
"t  c #2B2B2B",
"y  c #2C2C2C",
"u  c #2D2D2D",
"i  c gray18",
"p  c #2F2F2F",
"a  c #303030",
"s  c #313131",
"d  c #323232",
"f  c #343434",
"g  c #353535",
"h  c #363636",
"j  c #373737",
"k  c #383838",
"l  c #393939",
"z  c #3B3B3B",
"x  c #3F3F3F",
"c  c #404040",
"v  c #414141",
"b  c gray26",
"n  c #434343",
"m  c #444444",
"M  c #454545",
"N  c #464646",
"B  c #474747",
"V  c #484848",
"C  c #494949",
"Z  c #4A4A4A",
"A  c #4B4B4B",
"S  c #4C4C4C",
"D  c #4D4D4D",
"F  c #4E4E4E",
"G  c #4F4F4F",
"H  c #505050",
"J  c #535353",
"K  c #545454",
"L  c #555555",
"P  c #575757",
"I  c #585858",
"U  c #595959",
"Y  c #5A5A5A",
"T  c #5B5B5B",
"R  c #5C5C5C",
"E  c #5D5D5D",
"W  c #5E5E5E",
"Q  c #5F5F5F",
"!  c #616161",
"~  c #626262",
"^  c #636363",
"/  c #646464",
"(  c #656565",
")  c #666666",
"_  c #676767",
"`  c #6A6A6A",
"'  c #6D6D6D",
"]  c #737373",
"[  c #747474",
"{  c #757575",
"}  c #767676",
"|  c #777777",
" . c #787878",
".. c #797979",
"X. c #7A7A7A",
"o. c #7C7C7C",
"O. c #7E7E7E",
"+. c #7F7F7F",
"@. c #808080",
"#. c #818181",
"$. c #828282",
"%. c #838383",
"&. c #868686",
"*. c #888888",
"=. c #898989",
"-. c #8D8D8D",
";. c #8F8F8F",
":. c #909090",
">. c #919191",
",. c #929292",
"<. c #939393",
"1. c #949494",
"2. c #959595",
"3. c #969696",
"4. c #979797",
"5. c #999999",
"6. c #9A9A9A",
"7. c #9B9B9B",
"8. c #9C9C9C",
"9. c #9D9D9D",
"0. c #A0A0A0",
"q. c #A1A1A1",
"w. c #A4A4A4",
"e. c #A6A6A6",
"r. c #A8A8A8",
"t. c #A9A9A9",
"y. c #ABABAB",
"u. c #ACACAC",
"i. c #ADADAD",
"p. c #AEAEAE",
"a. c #AFAFAF",
"s. c #B0B0B0",
"d. c #B2B2B2",
"f. c #B3B3B3",
"g. c #B4B4B4",
"h. c #B6B6B6",
"j. c #B8B8B8",
"k. c #B9B9B9",
"l. c #BCBCBC",
"z. c #BEBEBE",
"x. c #C0C0C0",
"c. c #C1C1C1",
"v. c #C3C3C3",
"b. c #C5C5C5",
"n. c gray78",
"m. c #C8C8C8",
"M. c #C9C9C9",
"N. c #CACACA",
"B. c #CBCBCB",
"V. c #CCCCCC",
"C. c #CDCDCD",
"Z. c #CECECE",
"A. c #CFCFCF",
"S. c #D0D0D0",
"D. c #D2D2D2",
"F. c #D3D3D3",
"G. c #D4D4D4",
"H. c #D5D5D5",
"J. c gray84",
"K. c #DBDBDB",
"L. c #DDDDDD",
"P. c #DFDFDF",
"I. c #E0E0E0",
"U. c #E1E1E1",
"Y. c #E2E2E2",
"T. c #E3E3E3",
"R. c #E4E4E4",
"E. c #E5E5E5",
"W. c #E6E6E6",
"Q. c #E7E7E7",
"!. c #E8E8E8",
"~. c #E9E9E9",
"^. c #EAEAEA",
"/. c #EBEBEB",
"(. c #ECECEC",
"). c #EDEDED",
"_. c #EEEEEE",
"`. c #EFEFEF",
"'. c #F1F1F1",
"]. c #F2F2F2",
"[. c #F5F5F5",
"{. c #F7F7F7",
"}. c #F8F8F8",
"|. c #F9F9F9",
" X c #FAFAFA",
".X c #FBFBFB",
"XX c #FDFDFD",
"oX c #FEFEFE",
"OX c white",
/* pixels */
"                  & R ' 2.z.u.q.8.:.@.X.G 0 e +                 ",
"            X   c T.XX X].Q.J.b.j.q.4.*.` J m u %               ",
"          .   $ Y.oX|.[.~.H.c.k.i.3.O.' W B d 0 t X             ",
"                *.!..X{.^.Q.F.v.d.8.#._ A f 7 0 3               ",
"              .   l V.).oX~.M.s.2. .W M f 0 5 %                 ",
"              . O   A P.XXR.n.i.,.{ T M a 8 <   .               ",
"                o   Z Q.oXR.M.e.6.o.Y m s 9 >   .               ",
"                o   D (.OXR.m.y.>.{ U F u 8 <   .               ",
"                X   x b.Z.k.0.=.{ R V g 6 7 =   .               ",
"                X   l E.(.^.C.d.6.@.~ H k 0 *   .               ",
"                O   Y [.OXY.A.f.-. .R m a 0 <   .               ",
"                o   N W.OXU.S.f.>.{ E m p 2 ,   .               ",
"                o   V R.OXP.C.u.,.| T v d 5 ,   .               ",
"                o   F '.OXE.Z.g.1.+.E B f q <   .               ",
"                X   k N.!.M.s.4.O./ A h 7 2 =   .               ",
"                X   y l.D.x.r.7.&.' L v 9 1 &   .               ",
"                o   H `.OX).J.h.6.O.) V g 7 1   .               ",
"                o   V W.}.I.b.a.;.} U M i 7 :   .               ",
"                o   C Q..XU.n.i.>. .R N s 8 ;   .               ",
"                o   V ~.|.^.B.p.>.| T b s 8 >   .               ",
"                o   S /.OX!.S.k.<...Q B d 0 <   .               ",
"                X   w B.I.M.g.-.#.^ Z j 9 6 &   .               ",
"                o   A L.K.D.d.1.@.' P x y 9 -   .               ",
"                o   A /.OX_.S.l.6.%.! Z g q ,   .               ",
"                o   C !.XXT.b.y.,.| I N p 8 >   .               ",
"                o   Z !.oXE.v.f.<.[ E N d 8 ,   .               ",
"              . O   D U.}.E.V.i.,.| I N s 8 <   .         . .   ",
"              .   k D.`.XX~.B.p.5. .W M g w 4 , o O @ @ # o     ",
"                *.!.XX}.^.Q.G.v.s.9.#._ Z d 6 w y l M S P V <   ",
"          .   $ Y.oX}.[.~.H.v.h.t.5.#.' ^ G l 6 r g h b C ( Q o ",
"            X   c T.XX X].Q.J.b.l.w.<.$.] L b p z V A K Y M <   ",
"                  & R ' 2.z.u.0.9.,.+.{ ~ N n Y V i f k 2       "
};
